<?xml version="1.0" encoding="UTF-8"?>
<svg xmlns="http://www.w3.org/2000/svg" xmlns:xlink="http://www.w3.org/1999/xlink" width="100px" height="24px" viewBox="0 0 98 24" version="1.1">
<g id="surface1">
<path style=" stroke:none;fill-rule:nonzero;fill:rgb(10.588235%,9.019608%,10.588235%);fill-opacity:1;" d="M 0.523438 18.308594 C 1.066406 18.640625 2.191406 19.027344 3.0625 19.027344 C 3.957031 19.027344 4.324219 18.714844 4.324219 18.230469 C 4.324219 17.75 4.035156 17.511719 2.929688 17.144531 C 0.96875 16.484375 0.214844 15.417969 0.230469 14.292969 C 0.230469 12.527344 1.746094 11.1875 4.089844 11.1875 C 5.195312 11.1875 6.183594 11.4375 6.765625 11.730469 L 6.246094 13.765625 C 5.816406 13.535156 5.003906 13.226562 4.1875 13.226562 C 3.472656 13.226562 3.0625 13.515625 3.0625 14 C 3.0625 14.445312 3.433594 14.679688 4.597656 15.085938 C 6.398438 15.707031 7.15625 16.617188 7.175781 18.015625 C 7.175781 19.78125 5.777344 21.082031 3.0625 21.082031 C 1.824219 21.082031 0.71875 20.808594 0 20.421875 Z M 17.550781 16.039062 C 17.550781 19.511719 15.089844 21.105469 12.546875 21.105469 C 9.773438 21.101562 7.644531 19.28125 7.644531 16.214844 C 7.644531 13.144531 9.660156 11.191406 12.707031 11.191406 C 15.613281 11.191406 17.550781 13.1875 17.550781 16.039062 Z M 10.6875 16.136719 C 10.6875 17.765625 11.367188 18.988281 12.625 18.988281 C 13.773438 18.988281 14.507812 17.839844 14.507812 16.136719 C 14.507812 14.71875 13.964844 13.285156 12.625 13.285156 C 11.210938 13.285156 10.6875 14.738281 10.6875 16.136719 Z M 18.601562 14.429688 C 18.601562 13.246094 18.5625 12.238281 18.523438 11.402344 L 21.085938 11.402344 L 21.21875 12.703125 L 21.277344 12.703125 C 21.667969 12.101562 22.636719 11.191406 24.207031 11.191406 C 26.144531 11.191406 27.601562 12.46875 27.601562 15.261719 L 27.601562 20.890625 L 24.652344 20.890625 L 24.652344 15.632812 C 24.652344 14.410156 24.222656 13.574219 23.15625 13.574219 C 22.34375 13.574219 21.859375 14.136719 21.664062 14.683594 C 21.585938 14.855469 21.546875 15.144531 21.546875 15.417969 L 21.546875 20.890625 L 18.601562 20.890625 Z M 34.582031 20.890625 L 34.410156 19.9375 L 34.355469 19.9375 C 33.734375 20.695312 32.761719 21.101562 31.640625 21.101562 C 29.71875 21.101562 28.574219 19.703125 28.574219 18.191406 C 28.574219 15.730469 30.785156 14.542969 34.140625 14.5625 L 34.140625 14.429688 C 34.140625 13.921875 33.867188 13.207031 32.414062 13.207031 C 31.445312 13.207031 30.417969 13.535156 29.796875 13.921875 L 29.25 12.023438 C 29.910156 11.652344 31.210938 11.191406 32.9375 11.191406 C 36.097656 11.191406 37.105469 13.050781 37.105469 15.28125 L 37.105469 18.582031 C 37.105469 19.492188 37.144531 20.363281 37.242188 20.890625 Z M 34.234375 16.410156 C 32.683594 16.390625 31.480469 16.757812 31.480469 17.902344 C 31.480469 18.660156 31.984375 19.027344 32.644531 19.027344 C 33.335938 19.03125 33.949219 18.59375 34.175781 17.941406 C 34.214844 17.777344 34.234375 17.605469 34.234375 17.4375 Z M 38.660156 14.523438 C 38.660156 13.128906 38.621094 12.21875 38.582031 11.402344 L 41.121094 11.402344 L 41.21875 13.148438 L 41.296875 13.148438 C 41.78125 11.769531 42.945312 11.191406 43.855469 11.191406 C 44.0625 11.183594 44.273438 11.195312 44.476562 11.226562 L 44.476562 14.003906 C 44.214844 13.949219 43.949219 13.925781 43.683594 13.921875 C 42.597656 13.921875 41.859375 14.507812 41.660156 15.417969 C 41.625 15.636719 41.605469 15.855469 41.605469 16.078125 L 41.605469 20.890625 L 38.65625 20.890625 Z M 63.933594 18.328125 C 63.933594 19.296875 63.953125 20.152344 64.011719 20.890625 L 62.496094 20.890625 L 62.398438 19.355469 L 62.363281 19.355469 C 61.917969 20.113281 60.925781 21.105469 59.261719 21.105469 C 57.785156 21.105469 56.019531 20.289062 56.019531 16.992188 L 56.019531 11.5 L 57.726562 11.5 L 57.726562 16.695312 C 57.726562 18.480469 58.269531 19.683594 59.820312 19.683594 C 60.964844 19.683594 61.757812 18.886719 62.070312 18.132812 C 62.171875 17.851562 62.226562 17.554688 62.226562 17.257812 L 62.226562 11.5 L 63.933594 11.5 Z M 65.914062 20.890625 C 65.953125 20.25 65.992188 19.296875 65.992188 18.460938 L 65.992188 7.113281 L 67.675781 7.113281 L 67.675781 13.011719 L 67.714844 13.011719 C 68.316406 11.964844 69.402344 11.285156 70.917969 11.285156 C 73.242188 11.285156 74.890625 13.226562 74.871094 16.078125 C 74.871094 19.433594 72.757812 21.105469 70.664062 21.105469 C 69.304688 21.105469 68.222656 20.582031 67.523438 19.339844 L 67.464844 19.339844 L 67.386719 20.890625 Z M 67.675781 17.125 C 67.683594 17.335938 67.707031 17.542969 67.753906 17.746094 C 68.082031 18.929688 69.070312 19.742188 70.3125 19.742188 C 72.097656 19.742188 73.164062 18.289062 73.164062 16.136719 C 73.164062 14.253906 72.195312 12.644531 70.371094 12.644531 C 69.210938 12.644531 68.121094 13.441406 67.773438 14.738281 C 67.734375 14.933594 67.675781 15.164062 67.675781 15.4375 Z M 77.203125 16.503906 C 77.238281 18.8125 78.714844 19.761719 80.421875 19.761719 C 81.640625 19.761719 82.378906 19.550781 83.015625 19.28125 L 83.308594 20.5 C 82.707031 20.773438 81.679688 21.082031 80.1875 21.082031 C 77.296875 21.082031 75.570312 19.183594 75.570312 16.351562 C 75.570312 13.519531 77.238281 11.285156 79.972656 11.285156 C 83.039062 11.285156 83.851562 13.984375 83.851562 15.714844 C 83.851562 15.980469 83.832031 16.246094 83.796875 16.507812 Z M 82.203125 15.28125 C 82.222656 14.195312 81.757812 12.507812 79.839844 12.507812 C 78.113281 12.507812 77.355469 14.101562 77.214844 15.28125 Z M 82.203125 15.28125 "/>
<path style=" stroke:none;fill-rule:evenodd;fill:rgb(10.588235%,9.019608%,10.588235%);fill-opacity:1;" d="M 53.992188 13.191406 C 52.488281 10.976562 49.523438 10.3125 47.21875 11.679688 C 44.917969 13.042969 44.070312 15.964844 45.289062 18.347656 C 46.507812 20.730469 49.367188 21.757812 51.824219 20.691406 L 53.785156 23.875 L 55.339844 22.816406 L 53.378906 19.628906 C 55.105469 17.910156 55.363281 15.203125 53.992188 13.1875 M 51.796875 18.976562 C 50.175781 20.078125 47.964844 19.65625 46.863281 18.035156 C 45.761719 16.414062 46.183594 14.203125 47.804688 13.101562 C 49.425781 11.996094 51.636719 12.417969 52.738281 14.042969 C 53.835938 15.664062 53.417969 17.871094 51.796875 18.976562 "/>
<path style=" stroke:none;fill-rule:nonzero;fill:rgb(30.588235%,60.784314%,80.392157%);fill-opacity:1;" d="M 95.515625 20.929688 L 94.3125 20.929688 C 94.3125 11.246094 86.328125 3.367188 76.511719 3.367188 L 76.511719 2.167969 C 86.988281 2.167969 95.515625 10.582031 95.515625 20.929688 Z M 95.515625 20.929688 "/>
<path style=" stroke:none;fill-rule:nonzero;fill:rgb(30.588235%,60.784314%,80.392157%);fill-opacity:1;" d="M 96.347656 14.472656 C 94.902344 8.398438 89.984375 3.324219 83.816406 1.554688 L 84.089844 0.589844 C 90.597656 2.460938 95.792969 7.820312 97.320312 14.242188 Z M 97.269531 8.773438 C 95.785156 5.53125 93.25 2.699219 90.140625 0.808594 L 90.554688 0.125 C 93.804688 2.097656 96.445312 5.050781 98 8.4375 Z M 97.269531 8.773438 "/>
</g>
</svg>
